<svg xmlns="http://www.w3.org/2000/svg" viewBox="0 0 1200 800" role="img" aria-labelledby="title desc">
  <title id="title">Paisaje urbano de Barcelona y Nou Barris</title>
  <desc id="desc">Ilustracion del skyline de Barcelona, colinas de Nou Barris y desigualdad territorial.</desc>
  <defs>
    <linearGradient id="sky" x1="0" y1="0" x2="1" y2="1"><stop offset="0" stop-color="#c4ddff"/><stop offset="1" stop-color="#f4fbff"/></linearGradient>
  </defs>
  <rect width="1200" height="800" fill="url(#sky)"/>
  <circle cx="980" cy="138" r="78" fill="#fff2b8"/>
  <path d="M0 470 C225 375 372 430 545 350 C760 252 945 330 1200 225 V800 H0Z" fill="#b7e7d9"/>
  <path d="M0 565 C260 500 482 520 695 455 C905 390 1040 430 1200 355 V800 H0Z" fill="#64c7b8"/>
  <g fill="#13213a">
    <rect x="82" y="410" width="92" height="220" rx="5"/>
    <rect x="205" y="360" width="122" height="270" rx="5"/>
    <rect x="370" y="430" width="78" height="200" rx="5"/>
    <rect x="500" y="320" width="132" height="310" rx="5"/>
    <rect x="680" y="390" width="90" height="240" rx="5"/>
    <rect x="820" y="340" width="115" height="290" rx="5"/>
    <rect x="985" y="430" width="92" height="200" rx="5"/>
  </g>
  <path d="M80 630H1110" stroke="#0b5ed7" stroke-width="14" stroke-linecap="round"/>
  <path d="M132 684 C315 620 510 650 692 605 C880 560 1000 602 1128 565" fill="none" stroke="#00a6a6" stroke-width="10" stroke-linecap="round"/>
  <path d="M218 260h24v-54h34v54h32v-82h42v82h35v-42h34v42h45v42H218z" fill="#0b5ed7"/>
</svg>
