<svg xmlns="http://www.w3.org/2000/svg" viewBox="0 0 1200 686" role="img" aria-label="Circulo de apoyo emocional entre adolescentes"><defs><linearGradient id="wall" x1="0" x2="1" y1="0" y2="1"><stop stop-color="#fff4dc"/><stop offset=".55" stop-color="#f9e7c7"/><stop offset="1" stop-color="#eff8f1"/></linearGradient><filter id="sh"><feDropShadow dx="0" dy="14" stdDeviation="14" flood-color="#3f3428" flood-opacity=".18"/></filter></defs><rect width="1200" height="686" fill="url(#wall)"/><circle cx="250" cy="125" r="95" fill="#da7961" opacity=".72"/><circle cx="575" cy="45" r="120" fill="#8fb4ad" opacity=".62"/><path d="M860 170 C920 80 1035 95 1075 190 C1120 290 1045 385 942 375 C840 366 800 260 860 170 Z" fill="#91a970" opacity=".63"/><circle cx="315" cy="320" r="110" fill="#96c8ce" opacity=".65"/><g fill="#6f8f58" opacity=".75"><ellipse cx="80" cy="380" rx="35" ry="90" transform="rotate(-22 80 380)"/><ellipse cx="135" cy="330" rx="32" ry="86" transform="rotate(23 135 330)"/><ellipse cx="1030" cy="320" rx="34" ry="98" transform="rotate(15 1030 320)"/><ellipse cx="1110" cy="340" rx="32" ry="86" transform="rotate(-20 1110 340)"/></g><ellipse cx="600" cy="545" rx="420" ry="120" fill="#fff8ea" opacity=".9"/><g filter="url(#sh)"><g fill="#c3d5b3"><ellipse cx="385" cy="485" rx="82" ry="35"/><ellipse cx="555" cy="465" rx="86" ry="35"/><ellipse cx="735" cy="470" rx="86" ry="35"/><ellipse cx="870" cy="530" rx="82" ry="35"/><ellipse cx="640" cy="595" rx="98" ry="42"/><ellipse cx="265" cy="540" rx="90" ry="38"/></g><g fill="#f4c7ad" stroke="#172033" stroke-width="7"><circle cx="370" cy="355" r="31"/><circle cx="535" cy="330" r="34"/><circle cx="710" cy="350" r="32"/><circle cx="865" cy="405" r="31"/><circle cx="640" cy="500" r="34"/><circle cx="245" cy="438" r="31"/></g><g fill="#1f3b52"><path d="M332 388 C365 364 404 366 432 393 L420 486 L342 486 Z"/><path d="M496 365 C528 338 575 340 607 370 L590 462 L510 462 Z"/><path d="M675 383 C704 360 742 360 772 386 L758 472 L688 472 Z"/><path d="M832 438 C862 414 900 416 928 442 L914 535 L844 535 Z"/><path d="M605 535 C640 506 685 510 718 540 L700 615 L620 615 Z"/><path d="M208 470 C238 445 276 447 304 474 L290 548 L222 548 Z"/></g><g stroke="#172033" stroke-width="10" stroke-linecap="round" fill="none"><path d="M350 430 C330 468 320 500 315 548"/><path d="M395 430 C430 465 450 500 462 548"/><path d="M515 407 C498 448 490 480 485 528"/><path d="M565 407 C600 448 615 482 630 530"/><path d="M692 425 C672 462 662 495 655 545"/><path d="M735 425 C770 462 790 496 805 548"/><path d="M850 480 C826 515 810 548 795 600"/><path d="M890 480 C925 515 948 550 970 600"/><path d="M620 552 C600 580 584 605 565 646"/><path d="M662 552 C700 582 720 610 742 648"/><path d="M230 505 C210 535 196 565 180 612"/><path d="M268 505 C300 535 320 566 340 614"/></g></g><g fill="#ffffff" opacity=".82"><rect x="920" y="80" width="92" height="126" rx="8"/><rect x="1022" y="80" width="92" height="126" rx="8"/><rect x="930" y="92" width="72" height="14" rx="7"/><rect x="1032" y="92" width="72" height="14" rx="7"/></g><text x="54" y="640" font-family="Inter, Arial, sans-serif" font-size="23" font-weight="800" fill="#32404f">Círculo Respira: escucha, pertenencia y apoyo entre iguales</text></svg>
