<svg xmlns="http://www.w3.org/2000/svg" viewBox="0 0 1200 686" role="img" aria-label="Jovenes caminando por un entorno comunitario de Nou Barris"><defs><linearGradient id="sky" x1="0" x2="1" y1="0" y2="1"><stop stop-color="#fff2bd"/><stop offset=".45" stop-color="#dcefc9"/><stop offset="1" stop-color="#99cbd6"/></linearGradient><linearGradient id="walk" x1="0" x2="1"><stop stop-color="#f2e2c1"/><stop offset="1" stop-color="#d8c09c"/></linearGradient><filter id="sh"><feDropShadow dx="0" dy="14" stdDeviation="12" flood-color="#19324a" flood-opacity=".18"/></filter></defs><rect width="1200" height="686" fill="url(#sky)"/><circle cx="90" cy="105" r="86" fill="#fff2aa" opacity=".85"/><path d="M0 510 C210 420 340 445 520 365 C700 288 760 250 930 285 C1050 310 1130 275 1200 235 L1200 686 L0 686 Z" fill="#72b78b" opacity=".85"/><path d="M0 585 C220 500 415 495 620 455 C805 420 1010 410 1200 350 L1200 686 L0 686 Z" fill="url(#walk)"/><g opacity=".9"><rect x="690" y="190" width="315" height="240" rx="10" fill="#f5efe2"/><rect x="720" y="230" width="70" height="150" fill="#b9dddc"/><rect x="815" y="230" width="70" height="150" fill="#b9dddc"/><rect x="910" y="230" width="70" height="150" fill="#b9dddc"/><path d="M1005 190 L1110 250 L1110 430 L1005 430 Z" fill="#e7c891"/><path d="M1028 254 l58 32 l-58 32 z" fill="#35a6a6" opacity=".8"/></g><g fill="#bc7556" opacity=".95"><rect x="520" y="130" width="82" height="90"/><rect x="612" y="105" width="78" height="115"/><rect x="705" y="84" width="84" height="136"/><rect x="798" y="116" width="70" height="104"/><rect x="875" y="92" width="92" height="128"/></g><g fill="#e9f4e4"><rect x="535" y="150" width="14" height="18"/><rect x="566" y="150" width="14" height="18"/><rect x="633" y="128" width="14" height="18"/><rect x="665" y="128" width="14" height="18"/><rect x="727" y="108" width="14" height="18"/><rect x="762" y="108" width="14" height="18"/><rect x="902" y="116" width="14" height="18"/><rect x="936" y="116" width="14" height="18"/></g><g stroke="#285a39" stroke-width="18" stroke-linecap="round"><path d="M1050 258 C1100 140 1130 92 1180 45"/><path d="M1085 220 C1032 166 995 130 950 90"/><path d="M1095 214 C1165 198 1198 173 1240 140"/></g><g fill="#3c8b52" opacity=".9"><circle cx="944" cy="88" r="36"/><circle cx="1002" cy="120" r="42"/><circle cx="1070" cy="65" r="46"/><circle cx="1140" cy="105" r="50"/><circle cx="1182" cy="56" r="42"/></g><g filter="url(#sh)"><g stroke="#172033" stroke-width="10" stroke-linecap="round" fill="none"><path d="M585 465 C570 520 560 555 548 620"/><path d="M622 465 C650 515 672 555 696 620"/><path d="M726 452 C704 508 688 548 670 618"/><path d="M765 452 C800 505 825 548 850 618"/><path d="M852 444 C830 502 814 550 798 625"/><path d="M890 444 C925 505 950 552 980 625"/><path d="M960 462 C945 520 930 560 910 630"/><path d="M996 462 C1025 520 1050 560 1075 630"/></g><g fill="#f0c5ad"><circle cx="604" cy="405" r="28"/><circle cx="745" cy="392" r="28"/><circle cx="872" cy="382" r="30"/><circle cx="980" cy="405" r="29"/></g><g fill="#23415d"><path d="M570 438 C592 420 620 420 642 438 L630 520 L582 520 Z"/><path d="M710 425 C735 404 765 406 790 428 L775 515 L724 515 Z"/><path d="M835 418 C862 396 896 398 920 423 L905 518 L850 518 Z"/><path d="M948 439 C972 418 1005 420 1028 444 L1012 532 L960 532 Z"/></g><g fill="#f1c24c"><rect x="575" y="420" width="34" height="90" rx="8"/><rect x="940" y="428" width="36" height="92" rx="8"/></g></g><text x="58" y="636" font-family="Inter, Arial, sans-serif" font-size="23" font-weight="800" fill="#163b5a">Territorio comunitario: jovenes, equipamientos y espacio publico de Nou Barris</text></svg>
