<svg xmlns="http://www.w3.org/2000/svg" viewBox="0 0 1800 1100" role="img" aria-labelledby="title desc">
  <title id="title">Respira Nou Barris, comunidad y bienestar adolescente</title>
  <desc id="desc">Ilustracion editorial de Barcelona y Nou Barris con adolescentes, zonas verdes y red comunitaria.</desc>
  <defs>
    <linearGradient id="sky" x1="0" y1="0" x2="1" y2="1">
      <stop offset="0" stop-color="#b8d7ff"/>
      <stop offset=".44" stop-color="#eef7ff"/>
      <stop offset="1" stop-color="#b6efe4"/>
    </linearGradient>
    <linearGradient id="accent" x1="0" y1="0" x2="1" y2="0">
      <stop offset="0" stop-color="#0b5ed7"/>
      <stop offset=".52" stop-color="#00a6a6"/>
      <stop offset="1" stop-color="#ff6b35"/>
    </linearGradient>
    <filter id="shadow" x="-20%" y="-20%" width="140%" height="140%">
      <feDropShadow dx="0" dy="24" stdDeviation="24" flood-color="#08204a" flood-opacity=".18"/>
    </filter>
  </defs>
  <rect width="1800" height="1100" fill="url(#sky)"/>
  <circle cx="1430" cy="170" r="96" fill="#fff4bd" opacity=".9"/>
  <path d="M0 680 C240 570 420 630 630 555 C880 466 1080 555 1280 470 C1480 384 1640 440 1800 350 V1100 H0Z" fill="#d7efe7"/>
  <path d="M0 775 C300 692 545 740 760 655 C1020 552 1240 665 1470 570 C1605 512 1710 526 1800 490 V1100 H0Z" fill="#94d8ca"/>
  <path d="M0 910 C265 825 510 870 760 800 C1018 727 1265 850 1510 735 C1648 670 1740 704 1800 665 V1100 H0Z" fill="#48b9aa"/>
  <g fill="#13213a" filter="url(#shadow)">
    <rect x="1010" y="455" width="86" height="285" rx="8"/>
    <rect x="1120" y="355" width="105" height="385" rx="8"/>
    <rect x="1250" y="430" width="76" height="310" rx="8"/>
    <rect x="1360" y="300" width="124" height="440" rx="8"/>
    <rect x="1510" y="390" width="100" height="350" rx="8"/>
    <rect x="1642" y="470" width="78" height="270" rx="8"/>
  </g>
  <path d="M930 352h24v-58h35v58h31v-88h42v88h36v-42h34v42h44v42H930z" fill="#0b5ed7"/>
  <path d="M95 770 C270 638 470 650 662 764 C830 862 1012 858 1190 756 C1390 640 1585 648 1740 740" fill="none" stroke="#ffffff" stroke-width="24" stroke-linecap="round" opacity=".58"/>
  <path d="M120 788 C290 655 480 675 670 780 C842 876 1015 866 1186 766 C1374 656 1572 666 1720 748" fill="none" stroke="url(#accent)" stroke-width="9" stroke-linecap="round"/>
  <g transform="translate(235 570)" filter="url(#shadow)">
    <rect x="0" y="0" width="560" height="270" rx="40" fill="#ffffff" opacity=".9"/>
    <path d="M72 160c58-74 160-84 246-29 82 52 148 42 204-34" fill="none" stroke="#0b5ed7" stroke-width="16" stroke-linecap="round"/>
    <path d="M74 204c86-42 166-35 250 8 82 42 152 34 198-14" fill="none" stroke="#00a6a6" stroke-width="10" stroke-linecap="round"/>
    <circle cx="116" cy="92" r="42" fill="#0b5ed7"/>
    <circle cx="244" cy="78" r="38" fill="#00a6a6"/>
    <circle cx="376" cy="98" r="44" fill="#ff6b35"/>
  </g>
  <g transform="translate(650 732)">
    <circle cx="80" cy="52" r="42" fill="#13213a"/>
    <circle cx="168" cy="38" r="36" fill="#173f76"/>
    <circle cx="252" cy="58" r="40" fill="#1b6766"/>
    <path d="M26 170c18-68 92-93 142-48 28 25 44 55 52 94H0c5-18 13-33 26-46z" fill="#0f1c33"/>
    <path d="M112 170c18-64 86-91 134-48 29 26 47 56 58 94H84c7-18 16-34 28-46z" fill="#173f76"/>
    <path d="M204 170c18-66 94-92 144-48 30 26 49 56 60 94H176c7-18 16-34 28-46z" fill="#1b6766"/>
  </g>
</svg>
