<svg xmlns="http://www.w3.org/2000/svg" viewBox="0 0 1200 686" role="img" aria-label="Adolescentes en una sesion grupal socioeducativa en una sala azul"><defs><linearGradient id="bg" x1="0" x2="1"><stop stop-color="#d9ecfb"/><stop offset=".55" stop-color="#a8d4f0"/><stop offset="1" stop-color="#eef8ff"/></linearGradient><linearGradient id="floor" x1="0" x2="1" y1="0" y2="1"><stop stop-color="#8cc5e1"/><stop offset="1" stop-color="#d8eef8"/></linearGradient><filter id="soft"><feDropShadow dx="0" dy="18" stdDeviation="16" flood-color="#0a2a4c" flood-opacity=".18"/></filter></defs><rect width="1200" height="686" fill="url(#bg)"/><rect y="500" width="1200" height="186" fill="url(#floor)"/><path d="M0 500 C260 455 450 465 620 500 C805 540 990 535 1200 495 L1200 686 L0 686 Z" fill="#bfdeec" opacity=".7"/><rect x="790" y="70" width="260" height="330" rx="8" fill="#f9fdff" opacity=".86"/><path d="M790 225 H1050" stroke="#94bfd5" stroke-width="7" opacity=".5"/><path d="M918 70 V400" stroke="#94bfd5" stroke-width="7" opacity=".55"/><rect x="628" y="186" width="100" height="116" rx="6" fill="#63a9ce" opacity=".65"/><g fill="#ffd5ce" stroke="#172033" stroke-width="7" stroke-linecap="round" stroke-linejoin="round" filter="url(#soft)"><circle cx="560" cy="300" r="36"/><circle cx="695" cy="328" r="33"/><circle cx="810" cy="318" r="36"/><circle cx="930" cy="350" r="34"/><circle cx="470" cy="376" r="34"/><circle cx="1040" cy="390" r="32"/></g><g stroke="#172033" stroke-width="11" stroke-linecap="round" stroke-linejoin="round" fill="none" filter="url(#soft)"><path d="M540 344 C520 390 512 425 505 475"/><path d="M580 344 C612 386 620 430 628 478"/><path d="M675 368 C650 410 643 446 638 492"/><path d="M715 368 C745 407 757 447 772 498"/><path d="M792 362 C758 402 748 440 735 492"/><path d="M832 362 C870 404 882 442 898 495"/><path d="M912 392 C882 420 862 458 844 514"/><path d="M952 392 C988 420 1008 460 1026 514"/><path d="M450 418 C418 450 404 488 390 535"/><path d="M490 418 C526 452 546 490 562 536"/><path d="M1020 428 C988 460 970 498 958 548"/><path d="M1060 428 C1095 460 1114 502 1126 548"/></g><g fill="#ffffff" filter="url(#soft)"><ellipse cx="565" cy="505" rx="92" ry="34"/><ellipse cx="710" cy="522" rx="94" ry="34"/><ellipse cx="830" cy="515" rx="96" ry="34"/><ellipse cx="940" cy="548" rx="98" ry="34"/><ellipse cx="455" cy="568" rx="96" ry="34"/><ellipse cx="1040" cy="585" rx="92" ry="32"/></g><g fill="#123b63"><path d="M510 337 C535 318 575 318 604 339 L592 432 L526 432 Z"/><path d="M650 363 C674 342 712 342 740 365 L730 450 L662 450 Z"/><path d="M766 352 C794 332 833 334 862 358 L848 452 L780 452 Z"/><path d="M888 387 C916 366 956 368 982 392 L970 486 L902 486 Z"/><path d="M426 412 C452 390 488 390 516 414 L503 506 L438 506 Z"/><path d="M996 423 C1020 402 1058 402 1084 426 L1072 520 L1008 520 Z"/></g><g fill="#ffffff" opacity=".9"><rect x="145" y="92" width="275" height="52" rx="26"/><rect x="145" y="165" width="205" height="22" rx="11"/><rect x="145" y="203" width="255" height="22" rx="11"/><rect x="145" y="241" width="155" height="22" rx="11"/></g><circle cx="1110" cy="108" r="42" fill="#ffffff" opacity=".62"/><text x="145" y="640" font-family="Inter, Arial, sans-serif" font-size="22" font-weight="700" fill="#163b5a" opacity=".82">Respira Nou Barris · sesion de apoyo emocional adolescente</text></svg>
