<svg xmlns="http://www.w3.org/2000/svg" viewBox="0 0 1800 1050" role="img" aria-labelledby="title desc">
  <title id="title">Respira Nou Barris, bienestar adolescente y comunidad</title>
  <desc id="desc">Ilustración editorial generada para representar Nou Barris, salud emocional adolescente, espacios verdes y red comunitaria.</desc>
  <defs>
    <linearGradient id="sky" x1="0" y1="0" x2="1" y2="1">
      <stop offset="0" stop-color="#dcecff"/>
      <stop offset=".52" stop-color="#eef6ff"/>
      <stop offset="1" stop-color="#c7f1ee"/>
    </linearGradient>
    <linearGradient id="ground" x1="0" y1="0" x2="1" y2="0">
      <stop offset="0" stop-color="#0a4fa4"/>
      <stop offset=".42" stop-color="#00a6a6"/>
      <stop offset="1" stop-color="#ff6b35"/>
    </linearGradient>
    <filter id="soft" x="-20%" y="-20%" width="140%" height="140%">
      <feGaussianBlur stdDeviation="28"/>
    </filter>
  </defs>
  <rect width="1800" height="1050" fill="url(#sky)"/>
  <circle cx="1420" cy="190" r="92" fill="#fff7d1" opacity=".75"/>
  <g opacity=".72" filter="url(#soft)">
    <ellipse cx="510" cy="230" rx="220" ry="62" fill="#ffffff"/>
    <ellipse cx="980" cy="315" rx="280" ry="78" fill="#ffffff"/>
  </g>
  <path d="M0 700 C260 610 430 670 650 610 C880 545 1080 608 1260 548 C1465 480 1630 530 1800 455 L1800 1050 L0 1050Z" fill="#d7eee9"/>
  <path d="M0 780 C280 720 520 760 770 695 C1010 632 1220 700 1420 632 C1580 578 1700 604 1800 565 L1800 1050 L0 1050Z" fill="#b9e2d4"/>
  <g fill="#17213b" opacity=".92">
    <path d="M1020 600h70v-160h56v160h52v-220h78v220h48v-135h68v135h72v-190h82v190h64v-115h72v260h-662z"/>
    <path d="M1180 375h20v-56h26v56h22v-78h32v78h24v-42h28v42h26v32h-178z" fill="#0a4fa4"/>
  </g>
  <path d="M170 730 C330 630 520 630 690 728 C850 818 1020 824 1190 730 C1365 632 1540 636 1695 720" fill="none" stroke="#ffffff" stroke-width="20" opacity=".55"/>
  <path d="M140 745 C322 638 520 650 694 742 C858 829 1015 828 1184 739 C1372 640 1540 650 1700 730" fill="none" stroke="url(#ground)" stroke-width="7" stroke-linecap="round"/>
  <g transform="translate(300 620)">
    <circle cx="95" cy="80" r="44" fill="#0a4fa4"/>
    <circle cx="190" cy="60" r="38" fill="#00a6a6"/>
    <circle cx="285" cy="86" r="42" fill="#ff6b35"/>
    <path d="M45 210c18-60 78-84 126-48 28 20 46 52 56 93H0c7-18 20-34 45-45z" fill="#10203f"/>
    <path d="M148 210c18-58 76-82 120-48 29 22 47 53 58 93H107c8-18 22-34 41-45z" fill="#173f76"/>
    <path d="M244 210c17-58 77-82 123-48 30 22 48 53 59 93H204c9-18 23-34 40-45z" fill="#1b6766"/>
  </g>
  <g opacity=".96">
    <rect x="95" y="110" width="500" height="156" rx="34" fill="#ffffff" opacity=".82"/>
    <path d="M142 196c60-65 141-76 218-35 77 42 140 26 194-34" fill="none" stroke="#0a4fa4" stroke-width="12" stroke-linecap="round"/>
    <path d="M145 220c80-34 152-25 225 12 72 37 135 32 184-8" fill="none" stroke="#00a6a6" stroke-width="8" stroke-linecap="round"/>
  </g>
</svg>
