<svg xmlns="http://www.w3.org/2000/svg" viewBox="0 0 1200 800" role="img" aria-labelledby="title desc">
  <title id="title">Red comunitaria de salud mental</title>
  <desc id="desc">Ilustracion de una red de apoyo emocional y recursos de proximidad.</desc>
  <rect width="1200" height="800" fill="#eaf4ff"/>
  <circle cx="610" cy="390" r="245" fill="#d5f3ef"/>
  <path d="M420 430 C520 250 725 250 818 430 C748 585 500 585 420 430Z" fill="#ffffff"/>
  <path d="M500 432 C570 330 690 330 756 432 C700 520 555 520 500 432Z" fill="#0b5ed7" opacity=".12"/>
  <g stroke="#0b5ed7" stroke-width="10" stroke-linecap="round" opacity=".82">
    <path d="M610 422 330 250"/>
    <path d="M610 422 890 230"/>
    <path d="M610 422 925 602"/>
    <path d="M610 422 292 590"/>
  </g>
  <circle cx="610" cy="422" r="60" fill="#00a6a6"/>
  <g fill="#ffffff" stroke="#0b5ed7" stroke-width="9">
    <circle cx="330" cy="250" r="54"/>
    <circle cx="890" cy="230" r="54"/>
    <circle cx="925" cy="602" r="54"/>
    <circle cx="292" cy="590" r="54"/>
  </g>
  <path d="M250 705 C430 612 760 620 950 705" fill="none" stroke="#ff6b35" stroke-width="14" stroke-linecap="round"/>
  <path d="M555 410c34-52 92-52 126 0-10 42-116 42-126 0z" fill="#13213a" opacity=".85"/>
</svg>
