<svg xmlns="http://www.w3.org/2000/svg" viewBox="0 0 1200 800" role="img" aria-labelledby="title desc">
  <title id="title">Instituto y comunidad educativa</title>
  <desc id="desc">Ilustracion de un centro educativo, adolescentes y entorno comunitario.</desc>
  <defs>
    <linearGradient id="bg" x1="0" y1="0" x2="1" y2="1"><stop offset="0" stop-color="#d9ebff"/><stop offset="1" stop-color="#d3f5e8"/></linearGradient>
    <linearGradient id="roof" x1="0" y1="0" x2="1" y2="0"><stop offset="0" stop-color="#0b5ed7"/><stop offset="1" stop-color="#00a6a6"/></linearGradient>
  </defs>
  <rect width="1200" height="800" fill="url(#bg)"/>
  <path d="M0 610 C220 540 420 570 610 520 C820 465 1005 515 1200 450 V800 H0Z" fill="#9bdccb"/>
  <path d="M110 240h600v325H110z" fill="#ffffff"/>
  <path d="M78 240h666L410 88z" fill="url(#roof)"/>
  <rect x="160" y="285" width="105" height="80" rx="10" fill="#0b5ed7" opacity=".9"/>
  <rect x="300" y="285" width="105" height="80" rx="10" fill="#00a6a6" opacity=".85"/>
  <rect x="440" y="285" width="105" height="80" rx="10" fill="#0b5ed7" opacity=".9"/>
  <rect x="580" y="285" width="85" height="80" rx="10" fill="#00a6a6" opacity=".85"/>
  <rect x="325" y="420" width="170" height="145" rx="14" fill="#13213a"/>
  <circle cx="835" cy="450" r="42" fill="#ff6b35"/>
  <circle cx="930" cy="426" r="38" fill="#0b5ed7"/>
  <circle cx="1020" cy="462" r="42" fill="#00a6a6"/>
  <path d="M780 650c24-88 120-116 178 0z" fill="#13213a"/>
  <path d="M876 650c22-82 110-112 170 0z" fill="#173f76"/>
  <path d="M960 650c22-84 116-112 178 0z" fill="#1b6766"/>
  <path d="M760 212h190v42H760zM790 286h250v28H790z" fill="#ffffff" opacity=".72"/>
</svg>
